<svg xmlns="http://www.w3.org/2000/svg" viewBox="0 0 960 640"><path fill="#FFF" d="M640.467 37.315H319.533c-77.68 0-140.876 63.195-140.876 140.874v320.937c0 77.679 63.197 140.874 140.876 140.874h320.934c77.68 0 140.876-63.195 140.876-140.874V178.19c0-77.678-63.197-140.874-140.876-140.874z"/><path fill="#FFD100" d="M640.467 626.942H319.533c-70.478 0-127.817-57.339-127.817-127.816V178.19c0-70.477 57.339-127.816 127.817-127.816h320.934c70.478 0 127.817 57.34 127.817 127.816v320.937c0 70.477-57.339 127.816-127.817 127.816z"/><path fill="#010101" d="M319.532 69.96h320.936c59.526 0 108.23 48.704 108.23 108.23v320.935c0 59.527-48.704 108.23-108.23 108.23H319.532c-59.526 0-108.23-48.703-108.23-108.23V178.19c0-59.526 48.704-108.23 108.23-108.23z"/><path fill="#FFD100" d="M261.845 504.361v-47.92h39.174c11.632 0 15.044 3.831 15.044 15.534v16.855c0 11.77-3.412 15.53-15.044 15.53h-39.174zm44.815-32.316c0-4.738-1.532-6.13-5.64-6.13h-29.703v29.044h29.702c4.248 0 5.641-1.323 5.641-6.06v-16.854zM337.336 496.079v-39.637h9.403v47.92h-1.12a8.283 8.283 0 0 1-8.283-8.284zM439.245 496.079v-39.637h9.403v47.92h-1.12a8.283 8.283 0 0 1-8.283-8.284zM542.447 496.079v-39.637h9.404v47.92h-1.12a8.283 8.283 0 0 1-8.284-8.284zM687.16 504.361l-33.78-34.915v34.915h-8.984v-39.344a8.575 8.575 0 0 1 8.575-8.576h1.524l32.874 34.308v-34.308h9.054v39.606a8.313 8.313 0 0 1-8.313 8.314h-.95zM586.214 504.361c-11.632 0-14.975-3.76-14.975-15.531v-16.855c0-11.77 3.343-15.533 14.975-15.533h25.282c11.423 0 14.975 3.762 14.975 15.533v16.855c0 11.77-3.552 15.531-14.975 15.531h-25.282zm30.854-32.316c0-4.738-1.463-6.13-5.641-6.13h-25.213c-4.18 0-5.641 1.392-5.641 6.13V488.9c0 4.736 1.322 6.06 5.64 6.06h25.214c4.318 0 5.64-1.324 5.64-6.06v-16.855zM472.145 502.963a8.004 8.004 0 0 1 8.005-8.004h25.219c5.084 0 6.546-1.185 6.546-5.294 0-4.04-1.393-4.733-6.338-4.733h-19.432c-11.492 0-15.183-4.109-15.183-12.886v-2.162c0-9.542 3.83-13.443 15.461-13.443h33.572l-.016 1.59a8.035 8.035 0 0 1-8.034 7.954h-25.522c-4.597 0-5.92 1.462-5.92 5.223 0 3.76 1.323 4.796 5.92 4.796h19.154c11.91 0 16.02 3.9 16.02 12.328v2.17c0 10.168-4.18 13.859-15.602 13.859h-33.85v-1.398zM388.012 504.361l-26.191-47.92h11.213l19.924 36.395 19.919-36.395h11.286l-26.333 47.92h-9.818z"/><g><path fill="#010101" d="M558.133 48.522l6.499-14.75-15.31-4.51c-4.67-1.379-8.103-5.001-10.205-10.75L532.354 0l-15.09 12.492c-3.998 3.31-8.058 4.995-12.05 4.995-5.347 0-11.428-2.601-15.494-6.622l-9.723-9.619-9.716 9.619c-4.066 4.02-10.146 6.622-15.495 6.622-3.997 0-8.047-1.684-12.048-4.995L427.645 0l-6.76 18.513c-2.102 5.748-5.54 9.37-10.208 10.75l-15.309 4.51 6.497 14.749c2.996 6.805 4.52 13.903 4.52 21.11 0 19.93-10.17 24.467-10.17 46.603 0 31.89 24.67 52.765 47.579 58.66 11.584 2.822 15.082 3.007 25.54 5.583l10.663 11.483 10.667-11.483c10.458-2.576 13.958-2.761 25.536-5.583 22.913-5.895 47.586-26.77 47.586-58.66 0-22.136-10.172-26.673-10.172-46.603 0-7.207 1.517-14.305 4.52-21.11z"/><g fill="#D0D3D4"><path d="M551.11 69.632c0-8.493 2.038-16.014 4.734-22.124l5.342-12.138-12.57-3.71c-5.475-1.615-9.46-5.75-11.849-12.29l-5.55-15.18-12.356 10.235c-4.067 3.364-8.714 5.565-13.648 5.565-6.613 0-13.16-3.3-17.253-7.346l-7.963-7.873-7.953 7.873c-4.095 4.046-10.642 7.346-17.258 7.346-4.935 0-9.582-2.201-13.644-5.565L428.779 4.19l-5.542 15.18c-2.392 6.54-6.376 10.675-11.855 12.29l-12.57 3.71 5.344 12.139c2.69 6.11 4.733 13.63 4.733 22.123 0 20.724-10.166 24.843-10.166 46.603 0 29.133 21.688 50.057 45.702 56.233 11.872 3.003 17.397 3.297 26.25 5.775 1.147 1.205 9.322 10.039 9.322 10.039s8.179-8.834 9.329-10.04c8.848-2.477 14.38-2.771 26.255-5.774 24.006-6.175 45.698-27.1 45.698-56.233 0-21.76-10.168-25.879-10.168-46.603zm-36.956 97.224c-12.717 3.213-21.492 4.031-27.95 6.36-.825.779-6.207 6.604-6.207 6.604s-5.374-5.825-6.197-6.604c-6.46-2.329-15.237-3.147-27.952-6.36-26.755-6.768-41.41-29.231-41.41-50.621 0-19.423 10.148-25.425 10.148-46.652 0-16.54-7.894-30.506-7.894-30.506s19.405-1.693 24.661-25.283c0 0 11.639 11.985 23.433 11.985 15.21 0 25.21-12.922 25.21-12.922s10.01 12.922 25.217 12.922c11.793 0 23.431-11.985 23.431-11.985 5.259 23.59 24.67 25.283 24.67 25.283s-7.896 13.966-7.896 30.506c0 21.227 10.145 27.23 10.145 46.652 0 21.39-14.657 43.853-41.409 50.62z"/><path d="M539.707 69.583c0-15.139 5.723-26.804 5.723-26.804s-13.204-2.664-19.358-19.377c0 0-8.764 8.174-20.859 8.174-15.151 0-25.216-10.637-25.216-10.637s-10.06 10.637-25.21 10.637c-12.093 0-20.857-8.174-20.857-8.174-6.15 16.713-19.358 19.377-19.358 19.377s5.721 11.665 5.721 26.804c0 22.465-10.151 28.964-10.151 46.652 0 24.726 19.27 40.466 37.13 45.005 14.153 3.593 23.402 3.999 29.617 6.997 0 0 2.256 2.065 3.108 3.018.86-.953 3.122-3.018 3.122-3.018 6.207-2.998 15.46-3.404 29.606-6.997 17.865-4.539 37.137-20.279 37.137-45.005 0-17.688-10.155-24.187-10.155-46.652zm-112.93 0c0-9.603-2.082-17.894-3.87-23.26 4.168-2.288 9.405-6.332 13.572-13.296 4.488 2.506 10.836 5.034 18.307 5.034 11.32 0 20.158-4.938 25.21-8.65 5.06 3.712 13.904 8.65 25.218 8.65 1.804 0 3.546-.15 5.21-.41l-92.63 69.568c2.67-10.472 8.983-19.141 8.983-37.636zm12.62 81.762c-11.855-6.09-22.232-17.788-22.746-33.848l108.73-81.65c3.795 5.261 8.142 8.52 11.718 10.477-1.792 5.365-3.874 13.656-3.874 23.259 0 3.994.29 7.52.78 10.718l-94.607 71.044zm71.734 3.608c-11.21 2.852-24.913 4.314-29.057 6.681-.936.681-2.077 1.896-2.077 1.896s-1.137-1.215-2.071-1.896c-4.14-2.367-17.852-3.83-29.059-6.68-.422-.109-.841-.227-1.267-.345l88.18-66.223c3.005 10.51 7.594 17.393 7.594 27.849 0 20.982-16.712 34.77-32.243 38.718z"/><path d="M457.03 117.566l-10.158-15.555-11.282 8.473s3.954.11 3.954 4.25v29.29l7.961-5.975v-20.714l9.067 13.9 8.423-6.317V88.404l-7.965 5.976v23.186zM489.3 83.64l-8.974 6.74V76.885l-12.13 9.106s3.953.112 3.953 4.257v29.291l8.177-6.141v-13.355l8.975-6.736v13.35l7.788-5.847V64.298l-7.788 5.85V83.64zM512.06 80.25V53.06l-12.13 9.103s3.957.11 3.957 4.25v29.296l22.57-16.957c-.483-5.843 0-9.313 0-9.313l-14.397 10.81z"/></g><g fill="#FFF"><path d="M543.374 167.973a6.158 6.158 0 0 0 6.142 6.175 6.16 6.16 0 1 0-6.142-6.175zm10.995.033a4.828 4.828 0 0 1-4.849 4.82 4.83 4.83 0 0 1-4.821-4.85 4.832 4.832 0 0 1 4.85-4.82 4.834 4.834 0 0 1 4.82 4.85z"/><path d="M546.998 171.5l1.32.002.008-2.856.946.003 1.327 2.86 1.456.005-1.385-2.98a2.083 2.083 0 0 0 1.397-1.965 2.086 2.086 0 0 0-2.081-2.093l-2.967-.007-.021 7.03zm1.334-5.71l1.65.003a.77.77 0 1 1-.004 1.541l-1.648-.007.002-1.537z"/></g></g><g><g fill="#FFF"><path d="M439.301 388.315h124.624v-17.571c0-11.482-8.502-19.816-20.215-19.816h-71.814V320.69H524.335c12.515 0 19.986-7.325 19.986-19.592v-10.035l8.99-7.76h-81.416v-31.59h72.045c12.513 0 19.985-6.986 19.985-18.689v-11.01l8.99-7.681H439.301v173.982zM327.394 306.887l-4.497 5.158-85.136-97.712h-.015v173.982h12.84c12.515 0 19.987-7.325 19.987-19.593v-65.909l8.99 10.563v-.013l47.82 56.18-4.486-5.27 52.55-61.472v65.921c0 12.268 7.473 19.593 19.985 19.593h12.842V214.333h-.01l-80.87 92.554zM609.408 214.333c-12.513 0-19.984 7.325-19.984 19.593v17.79h48.437v136.6h12.838c12.515 0 19.986-7.326 19.986-19.594V251.715h28.223c12.515 0 19.987-7.322 19.987-19.588v-10.119l8.99-7.675H609.409z"/></g><g fill="#FFD100"><path d="M471.895 320.69h8.991v30.238h-8.991zM552.7 350.928h-8.99c11.713 0 20.215 8.334 20.215 19.816v17.571h8.991v-17.571c0-11.483-8.502-19.816-20.216-19.816zM563.926 233.024c0 11.703-7.472 18.689-19.985 18.689h8.991c12.513 0 19.984-6.986 19.984-18.689v-18.691l-8.99 7.681v11.01zM553.313 301.098v-17.795l-8.99 7.76v10.035c0 12.267-7.472 19.592-19.987 19.592h8.991c12.515 0 19.986-7.325 19.986-19.592zM471.895 251.713h8.991v31.59h-8.991zM327.382 369.543l48.066-56.225V302.8l-52.551 61.472zM408.274 214.333h8.991v173.982h-8.991zM270.573 368.722c0 12.268-7.472 19.593-19.987 19.593h8.991c12.515 0 19.987-7.325 19.987-19.593v-55.346l-8.991-10.563v65.91zM327.394 306.887l-80.642-92.554h-8.991l85.136 97.712zM718.895 222.008v10.12c0 12.265-7.472 19.587-19.987 19.587h8.99c12.516 0 19.988-7.322 19.988-19.588v-17.794l-8.991 7.675zM670.685 368.722c0 12.268-7.471 19.593-19.986 19.593h8.991c12.515 0 19.986-7.325 19.986-19.593V251.715h-8.991v117.007z"/></g></g><path fill="#FFD100" d="M716.146 422.355c-3.226-2.32-9.211-4.637-20.254-4.637H268.935c-20.62 0-23.63 8.187-23.94 9.283h474.844s-.464-2.323-3.693-4.646z"/><g><path fill="#010101" d="M761.437 622.838l-3.576-9.336h-5.152v15.317h3.2v-12.415l4.59 12.435h1.876l4.708-12.435v12.415h3.099v-15.317h-5.007zM737.924 616.384h4.72v12.435h3.524v-12.435h4.675v-2.882h-12.92z"/></g></svg>
