<svg xmlns="http://www.w3.org/2000/svg" viewBox="0 0 960 640"><path fill="#FFF" d="M640.467 37.315H319.533c-77.68 0-140.876 63.195-140.876 140.874v320.937c0 77.679 63.197 140.874 140.876 140.874h320.934c77.68 0 140.876-63.195 140.876-140.874V178.19c0-77.678-63.197-140.874-140.876-140.874z"/><path fill="#EF3340" d="M640.467 626.942H319.533c-70.478 0-127.817-57.339-127.817-127.816V178.19c0-70.477 57.339-127.816 127.817-127.816h320.934c70.478 0 127.817 57.34 127.817 127.816v320.937c0 70.477-57.339 127.816-127.817 127.816z"/><path fill="#010101" d="M319.532 69.96h320.936c59.526 0 108.23 48.704 108.23 108.23v320.935c0 59.527-48.704 108.23-108.23 108.23H319.532c-59.526 0-108.23-48.703-108.23-108.23V178.19c0-59.526 48.704-108.23 108.23-108.23z"/><path fill="#EF3340" d="M261.845 504.43v-47.92h39.174c11.632 0 15.044 3.831 15.044 15.534v16.855c0 11.77-3.412 15.531-15.044 15.531h-39.174zm44.815-32.316c0-4.738-1.532-6.13-5.64-6.13h-29.703v29.044h29.702c4.248 0 5.641-1.323 5.641-6.06v-16.854zM337.336 496.147v-39.636h9.403v47.92h-1.12a8.283 8.283 0 0 1-8.283-8.284zM439.245 496.147v-39.636h9.403v47.92h-1.12a8.283 8.283 0 0 1-8.283-8.284zM542.447 496.147v-39.636h9.404v47.92h-1.12a8.283 8.283 0 0 1-8.284-8.284zM687.16 504.43l-33.78-34.915v34.915h-8.984v-39.344a8.575 8.575 0 0 1 8.575-8.575h1.524l32.874 34.307v-34.307h9.054v39.606a8.314 8.314 0 0 1-8.313 8.313h-.95zM586.214 504.43c-11.632 0-14.975-3.76-14.975-15.531v-16.855c0-11.771 3.343-15.533 14.975-15.533h25.282c11.423 0 14.975 3.762 14.975 15.533v16.855c0 11.77-3.552 15.531-14.975 15.531h-25.282zm30.854-32.316c0-4.738-1.463-6.13-5.641-6.13h-25.213c-4.18 0-5.641 1.392-5.641 6.13v16.855c0 4.736 1.322 6.06 5.64 6.06h25.214c4.318 0 5.64-1.324 5.64-6.06v-16.855zM472.145 503.032a8.004 8.004 0 0 1 8.005-8.004h25.219c5.084 0 6.546-1.185 6.546-5.294 0-4.04-1.393-4.733-6.338-4.733h-19.432c-11.492 0-15.183-4.11-15.183-12.886v-2.162c0-9.542 3.83-13.442 15.461-13.442h33.572l-.016 1.589a8.035 8.035 0 0 1-8.034 7.954h-25.522c-4.597 0-5.92 1.462-5.92 5.223 0 3.76 1.323 4.797 5.92 4.797h19.154c11.91 0 16.02 3.898 16.02 12.327v2.17c0 10.168-4.18 13.86-15.602 13.86h-33.85v-1.399zM388.012 504.43l-26.191-47.92h11.213l19.924 36.395 19.919-36.394h11.286l-26.333 47.92h-9.818z"/><g><path fill="#010101" d="M558.133 48.522l6.499-14.75-15.31-4.51c-4.67-1.379-8.103-5.001-10.205-10.75L532.354 0l-15.09 12.492c-3.998 3.31-8.058 4.995-12.05 4.995-5.347 0-11.428-2.601-15.494-6.622l-9.723-9.619-9.716 9.619c-4.066 4.02-10.146 6.622-15.495 6.622-3.997 0-8.047-1.684-12.048-4.995L427.645 0l-6.76 18.513c-2.102 5.748-5.54 9.37-10.208 10.75l-15.309 4.51 6.497 14.749c2.996 6.805 4.52 13.903 4.52 21.11 0 19.93-10.17 24.467-10.17 46.603 0 31.89 24.67 52.765 47.579 58.66 11.584 2.822 15.082 3.007 25.54 5.583l10.663 11.483 10.667-11.483c10.458-2.576 13.958-2.761 25.536-5.583 22.913-5.895 47.586-26.77 47.586-58.66 0-22.136-10.172-26.673-10.172-46.603 0-7.207 1.517-14.305 4.52-21.11z"/><g fill="#D0D3D4"><path d="M551.11 69.632c0-8.493 2.038-16.014 4.734-22.124l5.342-12.138-12.57-3.71c-5.475-1.615-9.46-5.75-11.849-12.29l-5.55-15.18-12.356 10.235c-4.067 3.364-8.714 5.565-13.648 5.565-6.613 0-13.16-3.3-17.253-7.346l-7.963-7.873-7.953 7.873c-4.095 4.046-10.642 7.346-17.258 7.346-4.935 0-9.582-2.201-13.644-5.565L428.779 4.19l-5.542 15.18c-2.392 6.54-6.377 10.675-11.855 12.29l-12.57 3.71 5.344 12.139c2.69 6.11 4.733 13.63 4.733 22.123 0 20.724-10.166 24.843-10.166 46.603 0 29.133 21.688 50.057 45.702 56.233 11.872 3.003 17.397 3.297 26.25 5.775 1.147 1.205 9.322 10.04 9.322 10.04s8.179-8.835 9.329-10.04c8.848-2.478 14.379-2.772 26.255-5.775 24.006-6.175 45.698-27.1 45.698-56.233 0-21.76-10.168-25.879-10.168-46.603zm-36.956 97.224c-12.717 3.213-21.492 4.031-27.95 6.36-.825.779-6.207 6.604-6.207 6.604s-5.374-5.825-6.197-6.604c-6.46-2.329-15.237-3.147-27.952-6.36-26.755-6.768-41.41-29.231-41.41-50.621 0-19.423 10.148-25.425 10.148-46.652 0-16.54-7.894-30.507-7.894-30.507s19.405-1.692 24.661-25.282c0 0 11.639 11.985 23.433 11.985 15.21 0 25.21-12.922 25.21-12.922s10.01 12.922 25.217 12.922c11.793 0 23.431-11.985 23.431-11.985 5.259 23.59 24.67 25.282 24.67 25.282s-7.896 13.967-7.896 30.507c0 21.227 10.145 27.229 10.145 46.652 0 21.39-14.657 43.853-41.409 50.62z"/><path d="M539.707 69.583c0-15.139 5.723-26.804 5.723-26.804s-13.204-2.664-19.358-19.377c0 0-8.764 8.174-20.859 8.174-15.151 0-25.216-10.637-25.216-10.637s-10.06 10.637-25.21 10.637c-12.093 0-20.857-8.174-20.857-8.174-6.15 16.713-19.358 19.377-19.358 19.377s5.721 11.665 5.721 26.804c0 22.465-10.151 28.964-10.151 46.652 0 24.726 19.27 40.466 37.13 45.005 14.153 3.593 23.402 3.999 29.617 6.997 0 0 2.256 2.065 3.108 3.018.86-.953 3.122-3.018 3.122-3.018 6.207-2.998 15.46-3.404 29.606-6.997 17.865-4.539 37.137-20.279 37.137-45.005 0-17.688-10.155-24.187-10.155-46.652zm-112.93 0c0-9.603-2.082-17.894-3.87-23.26 4.168-2.288 9.405-6.332 13.572-13.296 4.488 2.506 10.836 5.034 18.307 5.034 11.32 0 20.158-4.938 25.21-8.65 5.06 3.712 13.904 8.65 25.218 8.65 1.804 0 3.546-.15 5.21-.41l-92.63 69.568c2.67-10.472 8.983-19.141 8.983-37.636zm12.62 81.762c-11.855-6.09-22.232-17.788-22.746-33.848l108.73-81.65c3.795 5.261 8.142 8.52 11.718 10.477-1.792 5.365-3.874 13.656-3.874 23.259 0 3.994.29 7.52.78 10.718l-94.607 71.044zm71.734 3.608c-11.21 2.852-24.913 4.314-29.057 6.681-.936.681-2.077 1.896-2.077 1.896s-1.138-1.215-2.071-1.896c-4.14-2.367-17.852-3.83-29.059-6.68-.422-.109-.841-.227-1.267-.345l88.18-66.223c3.005 10.51 7.594 17.393 7.594 27.849 0 20.982-16.712 34.77-32.243 38.718z"/><path d="M457.03 117.566l-10.158-15.555-11.282 8.473s3.954.11 3.954 4.25v29.29l7.961-5.975v-20.714l9.067 13.9 8.423-6.317V88.404l-7.965 5.976v23.186zM489.3 83.64l-8.974 6.74V76.885l-12.13 9.106s3.953.112 3.953 4.257v29.291l8.177-6.141v-13.355l8.974-6.736v13.351l7.79-5.848V64.298l-7.79 5.85V83.64zM512.06 80.25V53.06l-12.13 9.103s3.957.11 3.957 4.25v29.296l22.57-16.957c-.483-5.843 0-9.313 0-9.313l-14.397 10.81z"/></g><path fill="#FFF" d="M543.374 167.973a6.158 6.158 0 0 0 6.142 6.175 6.16 6.16 0 1 0-6.142-6.175zm10.995.033a4.828 4.828 0 0 1-4.849 4.82 4.83 4.83 0 0 1-4.821-4.85 4.832 4.832 0 0 1 4.85-4.82 4.834 4.834 0 0 1 4.82 4.85z"/><path fill="#FFF" d="M546.998 171.5l1.32.002.008-2.856.946.003 1.327 2.86 1.456.005-1.385-2.98a2.083 2.083 0 0 0 1.397-1.965 2.086 2.086 0 0 0-2.081-2.093l-2.967-.007-.021 7.03zm1.334-5.71l1.65.003a.77.77 0 1 1-.004 1.541l-1.648-.007.002-1.537z"/></g><g><g fill="#FFF"><path d="M320.145 250.315c14.118 0 26.948 5.657 36.121 15.931l.071.08c3.193 3.42 6.816 5.66 10.607 6.657.817-.206 1.664-.44 2.475-.762l24.698-9.79-2.37-4.66c-10.934-21.502-36.574-44.42-76.046-46.09-49.548 2.19-87.738 40.85-87.738 89.815 0 48.817 37.96 87.39 87.293 89.79l-.013-.001c34.617-1.245 63.052-18.18 76.542-45.918l2.246-4.618-24.613-9.76c-.787-.312-1.68-.532-2.482-.733-3.921 1.004-7.628 3.278-10.675 6.72-9.273 10.417-21.425 15.7-36.116 15.7-1.429 0-2.84-.076-4.238-.195v.015c-1.558.128-3.134.18-4.753.18-27.773 0-50.368-22.959-50.368-51.18 0-28.22 22.595-51.181 50.368-51.181 1.534 0 3.046.062 4.547.195v.015c1.465-.13 2.945-.21 4.444-.21zM419.163 388.485h124.625v-17.572c0-11.482-8.502-19.816-20.216-19.816h-71.815V320.86h52.441c12.515 0 19.986-7.325 19.986-19.593V291.23l8.991-7.76h-81.418v-31.59H523.803c12.514 0 19.985-6.986 19.985-18.69v-11.01l8.991-7.68H419.163v173.984zM704.578 214.5c-12.513 0-19.984 7.326-19.984 19.594v82.095L571.237 214.5h-1.053v173.985h12.61c12.513 0 19.984-7.325 19.984-19.593v-80.28l8.991 7.904 104.622 91.969h1.026V222.174l8.991-7.673h-21.83z"/></g><g fill="#EF3340"><path d="M315.907 352.48c-25.796-2.195-46.13-24.214-46.13-50.984 0-26.698 20.226-48.675 45.924-50.97v-.016a51.62 51.62 0 0 0-4.547-.195c-27.773 0-50.368 22.96-50.368 51.181 0 28.221 22.595 51.18 50.368 51.18 1.62 0 3.195-.052 4.753-.18v-.015zM451.757 320.859h8.991v30.238h-8.991zM532.563 351.098h-8.991c11.714 0 20.216 8.333 20.216 19.816v17.571h8.991v-17.571c0-11.483-8.502-19.816-20.216-19.816zM543.788 233.192c0 11.703-7.471 18.69-19.985 18.69h8.992c12.513 0 19.984-6.987 19.984-18.69V214.5l-8.991 7.682v11.01zM533.175 301.266v-17.794l-8.99 7.76v10.034c0 12.268-7.472 19.593-19.987 19.593h8.991c12.515 0 19.986-7.325 19.986-19.593zM451.757 251.881h8.991v31.59h-8.991zM717.418 222.174v166.311h8.991V214.5zM602.779 368.892c0 12.268-7.47 19.593-19.985 19.593h8.991c12.514 0 19.985-7.325 19.985-19.593v-72.376l-8.991-7.904v80.28zM571.238 214.5l113.356 101.69v-8.066L580.229 214.5zM320.145 211.58c-.773 0-1.544.01-2.311.027-.306.007-.603.02-.906.03-.41.013-.82.026-1.227.044 39.472 1.67 65.112 24.588 76.046 46.09l2.37 4.66-24.698 9.79c-.81.323-1.658.556-2.475.762.255.067.512.117.769.173.201.044.405.096.604.134 3.32.604 6.741.263 10.093-1.069l24.698-9.79-2.37-4.66c-11.355-22.33-38.49-46.192-80.593-46.192zM366.936 330.256c.802.2 1.695.421 2.482.733l24.613 9.76-2.246 4.618c-13.49 27.739-41.925 44.673-76.542 45.918l.013.002c1.617.078 3.247.12 4.889.12 36.469 0 66.61-17.212 80.631-46.04l2.246-4.618-24.613-9.76a18.46 18.46 0 0 0-11.473-.733z"/></g></g><path fill="#EF3340" d="M716.146 422.286c-3.226-2.32-9.211-4.637-20.254-4.637H268.935c-20.62 0-23.63 8.187-23.94 9.283h474.844s-.464-2.324-3.693-4.646z"/><g><path fill="#010101" d="M761.437 622.838l-3.576-9.336h-5.152v15.317h3.2v-12.415l4.59 12.435h1.876l4.708-12.435v12.415h3.099v-15.317h-5.007zM737.924 616.384h4.72v12.435h3.524v-12.435h4.675v-2.882h-12.92z"/></g></svg>
