<svg xmlns="http://www.w3.org/2000/svg" viewBox="0 0 960 640"><path fill="#FFF" d="M640.467 37.315H319.533c-77.68 0-140.876 63.195-140.876 140.874v320.937c0 77.679 63.197 140.874 140.876 140.874h320.934c77.68 0 140.876-63.195 140.876-140.874V178.19c0-77.678-63.197-140.874-140.876-140.874z"/><path fill="#E57200" d="M640.467 626.942H319.533c-70.478 0-127.817-57.339-127.817-127.816V178.19c0-70.477 57.339-127.816 127.817-127.816h320.934c70.478 0 127.817 57.34 127.817 127.816v320.937c0 70.477-57.339 127.816-127.817 127.816z"/><path fill="#010101" d="M319.532 69.96h320.936c59.526 0 108.23 48.704 108.23 108.23v320.935c0 59.527-48.704 108.23-108.23 108.23H319.532c-59.526 0-108.23-48.703-108.23-108.23V178.19c0-59.526 48.704-108.23 108.23-108.23z"/><g fill="#FFF"><path d="M680.324 325.948c-3.96 1-7.706 3.289-10.78 6.763-9.315 10.463-21.52 15.77-36.278 15.77a50.12 50.12 0 0 1-4.291-.199 58.014 58.014 0 0 1-4.74.198c-27.897 0-50.592-23.06-50.592-51.407s22.695-51.41 50.592-51.41c1.541 0 3.173.056 4.68.189v.014a50.098 50.098 0 0 1 4.351-.203c14.182 0 27.068 5.683 36.283 16.003l.071.079c3.212 3.441 6.859 5.693 10.673 6.692.82-.207 1.653-.446 2.467-.77l24.808-9.834-2.38-4.68c-10.987-21.605-36.686-44.628-76.354-46.292 1.468-.065 2.944-.106 4.432-.106-51.92 0-92.593 39.673-92.593 90.318 0 50.642 40.672 90.31 92.593 90.31-1.653 0-3.294-.042-4.923-.121 34.771-1.25 63.332-18.26 76.883-46.123l2.256-4.638-24.723-9.804c-.79-.313-1.63-.548-2.435-.75zM379.704 273.147c0-37.954-28.18-63.458-70.119-63.458h-66.184v174.76h12.895c12.57 0 20.074-7.357 20.074-19.68v-29.515h32.982c44.052 0 70.352-23.218 70.352-62.107zM320.47 297.7h-44.1v-50.461h42.94c16.146 0 27.424 10.654 27.424 25.908 0 14.688-10.555 24.553-26.264 24.553zM361.746 384.45h21.583c10.658 0 17.978-4.429 22.367-13.513l6.1-12.444h83.042l6.304 12.47c4.518 9.075 11.83 13.487 22.355 13.487h21.584l-91.667-174.76-91.668 174.76zm112.657-63.054H432.225l21.188-43.435 4.495 9.3 16.495 34.135z"/></g><path fill="#E57200" d="M681.552 325.674c-.171.033-.345.074-.518.112-.243.052-.483.094-.73.157l.02.005c.804.201 1.645.436 2.435.75l24.723 9.803-2.256 4.638c-13.55 27.863-42.112 44.873-76.883 46.123 1.63.08 3.27.122 4.923.122 36.632 0 66.908-17.288 80.991-46.245l2.256-4.638-24.723-9.803c-3.37-1.335-6.628-1.713-10.238-1.024zM705.188 253.152l2.38 4.682-24.808 9.834c-.814.323-1.647.562-2.467.77h-.007c3.892 1.045 7.68.75 11.505-.77l24.808-9.834-2.38-4.682c-11.406-22.428-38.663-46.397-80.953-46.397-1.488 0-2.964.041-4.432.106 39.668 1.665 65.367 24.687 76.354 46.291zM318.616 209.69h-9.031c41.94 0 70.119 25.503 70.119 63.457 0 38.89-26.3 62.107-70.352 62.107h9.032c44.051 0 70.35-23.218 70.35-62.107 0-37.954-28.178-63.458-70.118-63.458zM276.37 364.769c0 12.322-7.505 19.68-20.074 19.68h9.03c12.57 0 20.075-7.357 20.075-19.68v-29.515h-9.031v29.515zM276.37 247.239h9.031V297.7h-9.031zM432.224 321.396h9.031l16.653-34.136-4.495-9.3zM405.696 370.937c-4.389 9.084-11.709 13.513-22.367 13.513h9.032c10.658 0 17.977-4.429 22.366-13.513l6.1-12.444h-9.03l-6.101 12.444zM453.414 209.69l91.666 174.76h9.032l-91.668-174.76zM582.674 297.073c0-26.856 20.375-48.955 46.24-51.207l.002-.014a54.56 54.56 0 0 0-4.681-.188c-27.897 0-50.592 23.062-50.592 51.409s22.695 51.407 50.592 51.407c1.615 0 3.187-.07 4.74-.198-25.894-2.222-46.301-24.332-46.301-51.21z"/><g><path fill="#E57200" d="M261.845 500.1v-47.92h39.174c11.632 0 15.044 3.83 15.044 15.533v16.855c0 11.77-3.412 15.531-15.044 15.531h-39.174zm44.815-32.317c0-4.738-1.532-6.13-5.64-6.13h-29.703v29.045h29.702c4.248 0 5.641-1.324 5.641-6.06v-16.855zM337.336 491.817V452.18h9.403v47.92h-1.12a8.283 8.283 0 0 1-8.283-8.283zM439.245 491.817V452.18h9.403v47.92h-1.12a8.283 8.283 0 0 1-8.283-8.283zM542.447 491.817V452.18h9.404v47.92h-1.12a8.283 8.283 0 0 1-8.284-8.283zM687.16 500.1l-33.78-34.915v34.914h-8.984v-39.344a8.575 8.575 0 0 1 8.575-8.575h1.524l32.874 34.308V452.18h9.054v39.606a8.314 8.314 0 0 1-8.313 8.313h-.95zM586.214 500.1c-11.632 0-14.975-3.761-14.975-15.532v-16.855c0-11.77 3.343-15.533 14.975-15.533h25.282c11.423 0 14.975 3.762 14.975 15.533v16.855c0 11.77-3.552 15.532-14.975 15.532h-25.282zm30.854-32.317c0-4.738-1.463-6.13-5.641-6.13h-25.213c-4.18 0-5.641 1.392-5.641 6.13v16.855c0 4.736 1.322 6.06 5.64 6.06h25.214c4.318 0 5.64-1.324 5.64-6.06v-16.855zM472.145 498.702a8.004 8.004 0 0 1 8.005-8.004h25.219c5.084 0 6.546-1.186 6.546-5.295 0-4.039-1.393-4.733-6.338-4.733h-19.432c-11.492 0-15.183-4.109-15.183-12.885v-2.162c0-9.542 3.83-13.443 15.461-13.443h33.572l-.016 1.59a8.035 8.035 0 0 1-8.034 7.954h-25.522c-4.597 0-5.92 1.462-5.92 5.222s1.323 4.797 5.92 4.797h19.154c11.91 0 16.02 3.9 16.02 12.327v2.17c0 10.169-4.18 13.86-15.602 13.86h-33.85v-1.398zM388.012 500.1l-26.191-47.92h11.213l19.924 36.395 19.919-36.395h11.286L397.83 500.1h-9.818z"/></g><g><path fill="#010101" d="M558.133 48.522l6.499-14.75-15.31-4.51c-4.67-1.379-8.103-5.001-10.205-10.75L532.354 0l-15.09 12.492c-3.998 3.31-8.058 4.995-12.05 4.995-5.347 0-11.428-2.601-15.494-6.622l-9.723-9.619-9.716 9.619c-4.066 4.02-10.146 6.622-15.495 6.622-3.997 0-8.047-1.684-12.048-4.995L427.645 0l-6.76 18.513c-2.102 5.748-5.54 9.37-10.208 10.75l-15.309 4.51 6.497 14.749c2.996 6.805 4.52 13.903 4.52 21.11 0 19.93-10.17 24.467-10.17 46.603 0 31.89 24.67 52.765 47.579 58.66 11.584 2.822 15.082 3.007 25.54 5.583l10.663 11.483 10.667-11.483c10.458-2.576 13.958-2.761 25.536-5.583 22.913-5.895 47.586-26.77 47.586-58.66 0-22.136-10.172-26.673-10.172-46.603 0-7.207 1.517-14.305 4.52-21.11z"/><g fill="#D0D3D4"><path d="M551.11 69.632c0-8.493 2.038-16.014 4.734-22.124l5.342-12.138-12.57-3.71c-5.475-1.615-9.46-5.75-11.849-12.29l-5.55-15.18-12.356 10.235c-4.067 3.364-8.714 5.565-13.648 5.565-6.613 0-13.16-3.3-17.253-7.346l-7.963-7.873-7.953 7.873c-4.095 4.046-10.642 7.346-17.258 7.346-4.935 0-9.582-2.201-13.644-5.565L428.779 4.19l-5.542 15.18c-2.392 6.54-6.376 10.675-11.855 12.29l-12.57 3.71 5.344 12.139c2.69 6.11 4.733 13.63 4.733 22.123 0 20.724-10.166 24.843-10.166 46.603 0 29.133 21.688 50.057 45.702 56.233 11.872 3.003 17.397 3.297 26.25 5.775 1.147 1.205 9.322 10.039 9.322 10.039s8.179-8.834 9.329-10.04c8.848-2.477 14.38-2.771 26.255-5.774 24.006-6.175 45.698-27.1 45.698-56.233 0-21.76-10.168-25.879-10.168-46.603zm-36.956 97.224c-12.717 3.213-21.492 4.031-27.95 6.36-.825.779-6.207 6.604-6.207 6.604s-5.374-5.825-6.197-6.604c-6.46-2.329-15.237-3.147-27.952-6.36-26.755-6.768-41.41-29.231-41.41-50.621 0-19.423 10.148-25.425 10.148-46.652 0-16.54-7.894-30.506-7.894-30.506s19.405-1.693 24.661-25.283c0 0 11.639 11.985 23.433 11.985 15.21 0 25.21-12.922 25.21-12.922s10.01 12.922 25.217 12.922c11.793 0 23.431-11.985 23.431-11.985 5.259 23.59 24.67 25.283 24.67 25.283s-7.896 13.966-7.896 30.506c0 21.227 10.145 27.23 10.145 46.652 0 21.39-14.657 43.853-41.409 50.62z"/><path d="M539.707 69.583c0-15.139 5.723-26.804 5.723-26.804s-13.204-2.664-19.358-19.377c0 0-8.764 8.174-20.859 8.174-15.151 0-25.216-10.637-25.216-10.637s-10.06 10.637-25.21 10.637c-12.093 0-20.857-8.174-20.857-8.174-6.15 16.713-19.358 19.377-19.358 19.377s5.721 11.665 5.721 26.804c0 22.465-10.151 28.964-10.151 46.652 0 24.726 19.27 40.466 37.13 45.005 14.153 3.593 23.402 3.999 29.617 6.997 0 0 2.256 2.065 3.108 3.018.86-.953 3.122-3.018 3.122-3.018 6.207-2.998 15.46-3.404 29.606-6.997 17.865-4.539 37.137-20.279 37.137-45.005 0-17.688-10.155-24.187-10.155-46.652zm-112.93 0c0-9.603-2.082-17.894-3.87-23.26 4.168-2.288 9.405-6.332 13.572-13.296 4.488 2.506 10.836 5.034 18.307 5.034 11.32 0 20.158-4.938 25.21-8.65 5.06 3.712 13.904 8.65 25.218 8.65 1.804 0 3.546-.15 5.21-.41l-92.63 69.568c2.67-10.472 8.983-19.141 8.983-37.636zm12.62 81.762c-11.855-6.09-22.232-17.788-22.746-33.848l108.73-81.65c3.795 5.261 8.142 8.52 11.718 10.477-1.792 5.365-3.874 13.656-3.874 23.259 0 3.994.29 7.52.78 10.718l-94.607 71.044zm71.734 3.608c-11.21 2.852-24.913 4.314-29.057 6.681-.936.681-2.077 1.896-2.077 1.896s-1.137-1.215-2.071-1.896c-4.14-2.367-17.852-3.83-29.059-6.68-.422-.109-.841-.227-1.267-.345l88.18-66.223c3.005 10.51 7.594 17.393 7.594 27.849 0 20.982-16.712 34.77-32.243 38.718z"/><path d="M457.03 117.566l-10.158-15.555-11.282 8.473s3.954.11 3.954 4.25v29.29l7.961-5.975v-20.714l9.067 13.9 8.423-6.317V88.404l-7.965 5.976v23.186zM489.3 83.64l-8.974 6.74V76.885l-12.13 9.106s3.953.112 3.953 4.257v29.291l8.177-6.141v-13.355l8.975-6.736v13.35l7.788-5.847V64.298l-7.788 5.85V83.64zM512.06 80.25V53.06l-12.13 9.103s3.957.11 3.957 4.25v29.296l22.57-16.957c-.483-5.843 0-9.313 0-9.313l-14.397 10.81z"/></g><path fill="#FFF" d="M543.374 167.973a6.158 6.158 0 0 0 6.142 6.175 6.16 6.16 0 1 0-6.142-6.175zm10.995.033a4.828 4.828 0 0 1-4.849 4.82 4.83 4.83 0 0 1-4.821-4.85 4.832 4.832 0 0 1 4.85-4.82 4.834 4.834 0 0 1 4.82 4.85z"/><path fill="#FFF" d="M546.998 171.5l1.32.002.008-2.856.946.003 1.327 2.86 1.456.005-1.385-2.98a2.083 2.083 0 0 0 1.397-1.965 2.086 2.086 0 0 0-2.081-2.093l-2.967-.007-.021 7.03zm1.334-5.71l1.65.003a.77.77 0 1 1-.004 1.541l-1.648-.007.002-1.537z"/></g><g><path fill="#E57200" d="M716.146 418.526c-3.226-2.32-9.211-4.638-20.254-4.638H268.935c-20.62 0-23.63 8.188-23.94 9.284h474.844s-.464-2.324-3.693-4.646z"/></g><g><path fill="#010101" d="M761.437 622.838l-3.576-9.336h-5.152v15.317h3.2v-12.415l4.59 12.435h1.876l4.708-12.435v12.415h3.099v-15.317h-5.007zM737.924 616.384h4.72v12.435h3.524v-12.435h4.675v-2.882h-12.92z"/></g></svg>
